<svg width="215" height="69" viewBox="0 0 215 69" fill="gray" xmlns="http://www.w3.org/2000/svg">
<path d="M173.89 23.9027C169.835 21.8475 166.724 23.5694 163.558 23.625C161.392 23.6805 159.059 23.6249 157.115 22.9028C152.949 21.3476 152.283 15.3488 155.893 12.9604C157.726 11.794 159.837 10.8497 161.948 10.3498C175.223 7.23926 188.553 4.18434 201.94 1.29602C204.384 0.740572 207.105 0.851607 209.66 1.24042C213.549 1.79587 215.826 6.07286 214.437 9.62772C214.048 10.6275 213.493 11.6273 212.938 12.5716C207.383 21.7364 201.94 30.9569 196.219 40.0106C194.886 42.1213 193.053 44.1209 190.997 45.6206C187.054 48.509 182.999 46.6205 182.166 41.677C181.944 40.2884 182.11 38.7887 182.11 36.4002C179.888 37.2334 178.333 37.6777 176.834 38.4554C167.28 43.3433 157.782 48.2312 148.284 53.1747C127.121 64.117 104.237 67.8385 80.7412 68.4495C73.4093 68.6161 65.8552 67.783 58.801 65.8945C47.7476 62.9506 36.9164 59.118 26.3074 54.9522C14.3653 50.2309 6.47794 41.066 1.42337 29.4016C0.590202 27.4576 0.034755 25.0691 0.312478 23.014C0.534657 21.5143 2.03435 19.5146 3.42297 19.0147C4.81159 18.5148 7.25555 19.1814 8.31089 20.2923C10.0883 22.0142 11.3103 24.4581 12.5878 26.6799C17.8646 35.6782 25.3076 41.8992 35.1945 45.2319C45.3592 48.6201 55.2462 52.897 65.9663 54.2856C89.6283 57.285 112.457 53.7302 134.286 44.6209C146.173 39.6774 157.448 33.1786 169.002 27.3464C170.613 26.5133 171.946 25.2913 173.89 23.9027Z" fill="gray"/>
</svg>
