<svg width="130" height="130" viewBox="0 0 130 130" fill="none" xmlns="http://www.w3.org/2000/svg">
<path fill-rule="evenodd" clip-rule="evenodd" d="M75.6571 1.48903C65.4856 10.4755 59.7687 23.1116 57.1882 36.8876C53.2918 57.6922 56.5442 81.101 62.5681 98.6575C66.353 109.692 72.6022 115.892 78.6498 125.802C78.8945 126.203 78.7679 126.727 78.3664 126.972C77.9671 127.216 77.4412 127.09 77.1986 126.688C71.0802 116.663 64.7879 110.373 60.958 99.2092C54.8504 81.408 51.5658 57.6708 55.5159 36.5742C58.1672 22.4182 64.0773 9.44938 74.5301 0.213842C74.8821 -0.097444 75.4188 -0.0652755 75.7301 0.2868C76.0414 0.638875 76.0092 1.17774 75.6571 1.48903Z" fill="gray"/>
<path fill-rule="evenodd" clip-rule="evenodd" d="M78.1088 129.085C78.0852 129.051 77.9329 128.819 77.7847 128.638C77.175 127.887 75.9879 126.67 74.3992 125.223C69.0644 120.375 59.2213 112.969 51.1085 112.226C50.6405 112.183 50.297 111.769 50.34 111.301C50.3829 110.833 50.7952 110.487 51.2632 110.53C59.7044 111.303 69.994 118.92 75.5435 123.965C76.2863 124.641 76.9474 125.27 77.5056 125.83C77.0247 123.462 76.4838 121.112 75.9149 118.761C74.2747 111.994 74.2576 105.801 75.6551 98.9266C75.7474 98.4672 76.1982 98.1689 76.6577 98.2633C77.1171 98.3556 77.4155 98.8064 77.321 99.2658C75.9771 105.882 75.99 111.846 77.5679 118.359C78.3106 121.432 79.0062 124.508 79.588 127.614C79.646 127.924 79.7877 128.729 79.7898 128.844C79.8027 129.506 79.266 129.669 79.1458 129.699C79.0878 129.714 78.3579 129.858 78.1088 129.085ZM79.7083 128.505C79.7147 128.527 79.7233 128.548 79.7297 128.572C79.7255 128.553 79.7168 128.531 79.7083 128.505Z" fill="gray"/>
</svg>
