<svg width="215" height="69" viewBox="0 0 215 69" fill="gray" xmlns="http://www.w3.org/2000/svg">
<path d="M173.89 45.4814C169.835 47.5365 166.724 45.8146 163.558 45.7591C161.392 45.7035 159.059 45.7591 157.115 46.4812C152.949 48.0364 152.283 54.0352 155.893 56.4236C157.726 57.5901 159.837 58.5344 161.948 59.0343C175.223 62.1448 188.553 65.1997 201.94 68.088C204.384 68.6435 207.105 68.5324 209.66 68.1436C213.549 67.5882 215.826 63.3112 214.437 59.7563C214.048 58.7565 213.493 57.7567 212.938 56.8125C207.383 47.6476 201.94 38.4272 196.219 29.3734C194.886 27.2627 193.053 25.2631 190.997 23.7634C187.054 20.8751 182.999 22.7636 182.166 27.7071C181.944 29.0957 182.11 30.5954 182.11 32.9838C179.888 32.1506 178.333 31.7063 176.834 30.9287C167.28 26.0407 157.782 21.1528 148.284 16.2093C127.121 5.26702 104.237 1.54552 80.7412 0.934532C73.4093 0.767899 65.8552 1.60106 58.801 3.48958C47.7476 6.43345 36.9164 10.266 26.3074 14.4319C14.3653 19.1532 6.47794 28.318 1.42337 39.9824C0.590202 41.9265 0.034755 44.3149 0.312478 46.3701C0.534657 47.8698 2.03435 49.8694 3.42297 50.3693C4.81159 50.8692 7.25555 50.2027 8.31089 49.0918C10.0883 47.3699 11.3103 44.9259 12.5878 42.7041C17.8646 33.7059 25.3076 27.4849 35.1945 24.1522C45.3592 20.764 55.2462 16.487 65.9663 15.0984C89.6283 12.099 112.457 15.6538 134.286 24.7632C146.173 29.7066 157.448 36.2054 169.002 42.0376C170.613 42.8708 171.946 44.0927 173.89 45.4814Z" fill="gray"/>
</svg>
