<svg xmlns="http://www.w3.org/2000/svg" width="24" height="24" fill="none" viewBox="0 0 24 24">
  <path stroke="#000" stroke-linecap="round" stroke-linejoin="round" stroke-width="1.5" d="M4 10.654v7.72c0 .57 0 .854.109 1.071.096.192.249.347.437.444C4.76 20 5.04 20 5.6 20h5.9v-3.5c0-.465 0-.697.038-.89a2 2 0 0 1 1.572-1.572C13.303 14 13.535 14 14 14s.697 0 .89.038a2 2 0 0 1 1.572 1.572c.038.193.038.425.038.89V20h1.9c.56 0 .84 0 1.054-.11a1.01 1.01 0 0 0 .437-.445c.109-.217.109-.502.109-1.07v-7.721c0-.298 0-.447-.038-.584a1.022 1.022 0 0 0-.165-.335c-.085-.113-.202-.203-.437-.381l-6.4-4.877c-.344-.262-.516-.393-.705-.444a.985.985 0 0 0-.51 0c-.189.051-.36.182-.705.444l-6.4 4.877c-.235.178-.352.268-.437.381-.075.1-.13.214-.165.335-.038.137-.038.286-.038.584Z"/>
  <path stroke="#000" stroke-linecap="round" stroke-linejoin="round" stroke-width="1.5" d="M10 12a1.5 1.5 0 1 1-3 0 1.5 1.5 0 0 1 3 0Z"/>
</svg>