<svg width="534" height="534" viewBox="0 0 534 534" fill="none" xmlns="http://www.w3.org/2000/svg">
<path d="M185.369 402.586C185.557 394.539 185.551 387.117 185.992 379.721C186.368 373.41 187.391 367.138 187.81 360.827C187.895 359.538 186.569 358.154 185.894 356.814C184.868 358.085 183.044 359.297 182.946 360.636C182.209 370.653 173.935 374.914 167.933 380.925C161.952 386.914 155.731 392.711 150.338 399.194C149.3 400.441 150.833 405.126 152.508 407.102C160.276 416.269 168.457 425.091 176.638 433.9C177.931 435.293 179.979 435.984 181.679 437C182.059 435.348 182.628 433.714 182.787 432.041C183.702 422.441 184.519 412.83 185.369 402.586ZM164.962 408.322C165.966 407.26 166.969 406.198 167.973 405.135C168.204 406.663 168.435 408.191 168.667 409.718C167.645 409.465 166.622 409.212 164.962 408.322Z" fill="white"/>
<path d="M344.798 104.332C348.999 117.24 353.351 129.463 357.284 141.82C358.142 144.514 357.172 147.743 357.68 150.613C357.968 152.236 359.551 153.629 360.551 155.126C361.252 153.844 362.547 152.563 362.549 151.28C362.555 146.216 363.007 140.925 361.731 136.134C359.003 125.885 355.309 115.893 351.992 105.802C351.81 105.248 351.367 104.78 351.19 104.226C350.528 102.161 349.927 100.077 349.303 98C347.801 99.8981 346.299 101.796 344.798 104.332Z" fill="white"/>
<path d="M266.996 386.016C260.147 386.866 253.907 387.558 247.738 388.652C245.63 389.027 244.417 390.975 247.143 392.138C249.807 393.273 252.86 393.773 255.78 393.961C259.304 394.187 263.286 394.768 266.333 393.47C273.717 390.322 280.727 386.267 287.744 382.322C288.716 381.776 288.876 379.786 289.413 378.465C287.816 378.297 285.96 377.518 284.668 378.066C278.902 380.509 273.297 383.331 266.996 386.016Z" fill="white"/>
<path d="M339.377 348.735C344.326 343.789 348.979 339.186 353.558 334.51C354.222 333.832 354.97 332.772 354.91 331.945C354.781 330.19 354.145 328.472 353.717 326.739C352.515 327.521 351.187 328.161 350.132 329.107C341.164 337.146 332.187 345.178 323.382 353.395C322.235 354.466 322.051 356.569 321.421 358.194C323.172 357.998 325.243 358.333 326.615 357.507C330.904 354.925 334.93 351.904 339.377 348.735Z" fill="white"/>
<path d="M381.785 262.381C379.902 260.122 377.181 260.794 376.749 263.343C375.3 271.903 373.934 280.491 373.015 289.118C372.818 290.968 374.548 293.084 375.672 294.903C375.768 295.059 378.943 294.08 379.088 293.322C380.6 285.413 381.936 277.461 382.957 269.475C383.221 267.406 382.21 265.175 381.785 262.381Z" fill="white"/>
<path d="M377.64 192.596C377.108 191.733 377.009 191.099 376.664 190.658C375.134 188.706 373.123 184.981 372.032 185.225C368.365 186.047 369.946 189.654 370.403 191.997C371.84 199.363 373.717 206.644 375.39 213.965C375.527 214.567 375.139 215.515 375.455 215.811C376.997 217.25 378.695 218.522 380.337 219.854C380.82 217.732 381.95 215.52 381.667 213.506C380.698 206.605 379.234 199.773 377.64 192.596Z" fill="white"/>
<path d="M211.834 405.453C216.764 403.004 217.304 401.089 213.447 399.677C207.347 397.445 200.839 396.125 194.392 395.185C192.915 394.97 190.982 397.869 189.259 399.335C190.463 400.418 191.535 402.214 192.892 402.463C199.056 403.591 205.3 404.284 211.834 405.453Z" fill="white"/>
</svg>
