<svg xmlns="http://www.w3.org/2000/svg" width="24" height="24" fill="none" viewBox="0 0 24 24">
  <path stroke="#000" stroke-linecap="round" stroke-linejoin="round" stroke-width="1.5" d="M9.5 15.5c0-.465 0-.697.038-.89a2 2 0 0 1 1.572-1.572C11.303 13 11.535 13 12 13s.697 0 .89.038a2 2 0 0 1 1.572 1.572c.038.193.038.425.038.89V20h-5v-4.5Z"/>
  <path stroke="#000" stroke-linecap="round" stroke-linejoin="round" stroke-width="1.5" d="M4 18.375v-7.721c0-.298 0-.447.038-.584.034-.12.09-.235.165-.335.085-.113.202-.203.437-.381l6.4-4.877c.344-.262.516-.393.705-.444a.985.985 0 0 1 .51 0c.189.051.36.182.705.444l6.4 4.877c.235.178.352.268.437.381.075.1.13.214.165.335.038.137.038.286.038.584v7.72c0 .57 0 .854-.109 1.071a1.008 1.008 0 0 1-.437.444C19.24 20 18.96 20 18.4 20H5.6c-.56 0-.84 0-1.054-.11a1.008 1.008 0 0 1-.437-.445C4 19.228 4 18.943 4 18.375Z"/>
</svg>