<svg viewBox="0 0 431 420" fill="none" xmlns="http://www.w3.org/2000/svg">
<path d="M253.736 135.774C253.736 135.774 287.78 28.9952 242.29 11.6823C191.776 -7.54298 202.947 144.357 202.947 144.357C202.947 144.357 92.9057 24.1481 69.1791 79.6288C47.2749 130.848 156.45 195.138 156.45 195.138C156.45 195.138 -2.6938 209.812 11.9523 272.025C26.9936 335.917 178.983 253.071 178.983 253.071C178.983 253.071 124.964 380.594 178.983 406.845C239.045 436.034 253.736 253.071 253.736 253.071C253.736 253.071 380.812 373.427 415.401 315.296C449.438 258.095 294.51 195.138 294.51 195.138C294.51 195.138 412.484 158.691 397.518 108.238C381.261 53.4349 253.736 135.774 253.736 135.774Z" stroke="gray" stroke-width="5"/>
</svg>
