<svg xmlns="http://www.w3.org/2000/svg" width="24" height="24" fill="none" viewBox="0 0 24 24">
  <path stroke="#000" stroke-linecap="round" stroke-linejoin="round" stroke-width="1.5" d="M12.12 13.188c1.655 0 2.998-1.386 2.998-3.094C15.118 8.385 13.775 7 12.12 7c-1.656 0-3 1.385-3 3.094 0 1.708 1.343 3.094 2.999 3.094Zm0 0C6.46 13.188 6.793 18 6.793 18m5.327-4.813c5.659 0 5.326 4.813 5.326 4.813m-.885-11c1.38 0 2.499 1.154 2.499 2.578s-.675 2.464-2.054 2.464c3.553 0 3.994 4.125 3.994 4.125M7.737 7C6.264 7 5.07 8.133 5.07 9.531c0 1.398.72 2.419 2.192 2.419C3.47 11.95 3 16 3 16"/>
</svg>